<?xml version="1.0" encoding="utf-8"?>
<svg width="24" height="24" fill="#531FCC" viewBox="0 0 28 28" xmlns="http://www.w3.org/2000/svg">
  <path d="M 22.16 0 L 5.831 0 C 2.611 0 0 2.611 0 5.831 L 0 22.159 C 0 25.379 2.611 27.989 5.831 27.989 L 22.16 27.989 C 25.381 27.989 27.991 25.379 27.991 22.159 L 27.991 5.831 C 27.991 2.611 25.381 0 22.16 0 Z M 9.33 22.159 L 5.831 22.159 L 5.831 9.33 L 9.33 9.33 L 9.33 22.159 Z M 7.581 7.851 C 6.454 7.851 5.539 6.93 5.539 5.794 C 5.539 4.658 6.454 3.737 7.581 3.737 C 8.708 3.737 9.622 4.658 9.622 5.794 C 9.622 6.93 8.709 7.851 7.581 7.851 Z M 23.327 22.159 L 19.828 22.159 L 19.828 15.623 C 19.828 11.695 15.162 11.992 15.162 15.623 L 15.162 22.159 L 11.663 22.159 L 11.663 9.33 L 15.162 9.33 L 15.162 11.388 C 16.79 8.373 23.327 8.15 23.327 14.275 L 23.327 22.159 Z" style=""/>
</svg>